<svg xmlns="http://www.w3.org/2000/svg" viewBox="0 0 435.91 188.54"><defs><style>.cls-1{fill:#00e3f4;}.cls-2{fill:none;stroke:#000;stroke-miterlimit:10;stroke-width:3px;}</style></defs><title>TextTip</title><g data-name="Layer 2"><g data-name="Layer 1"><polygon class="cls-1" points="414.91 181 208.91 181 229.91 67 435.91 67 414.91 181"/><path d="M10.81,163.48,23,99.7H0L2.85,85.81H64.37L61.64,99.7H38.48L26.25,163.48Z"/><path d="M65.17,139c.35,8.43,5.22,13.42,13.89,13.42,6.29,0,11.16-1.9,14.73-5.94h15.79C103.17,157.66,92,165,77.75,165c-15.91,0-27.19-10.69-27.19-25.53,0-20.31,16.15-36.22,37.29-36.22,16.15,0,27,10.33,27,24.94a34.27,34.27,0,0,1-.6,5.93L113,139Zm2.13-11.28V128H101c-.71-7.6-6.17-12.12-14.49-12.12A21.06,21.06,0,0,0,67.3,127.73Z"/><path d="M110.17,163.48l27.56-30.88-15.21-27.79H139l10.22,20.78h.23l17.46-20.78h17.7l-26.49,29.57,16,29.1h-16.5l-10.93-22.09h-.24l-18.64,22.09Z"/><path d="M234,140.91c-2.5,16.27-13.19,24.11-27.67,24.11-12.24,0-21-5.94-21-18.17a26.93,26.93,0,0,1,.6-5.94l10.81-55.7h14.37l-3.69,19.6H237.6L235,117.4H204.82l-4.51,23.51a23.62,23.62,0,0,0-.48,3.8c0,5.23,3,7.37,7.84,7.37,5.7,0,10.21-3.21,12-11.17l.35-1.54h14.25Z"/><path d="M257.09,163.48,269.32,99.7h-23l2.85-13.89h61.52L307.92,99.7H284.76l-12.23,63.78Z"/><path d="M305.61,163.48,317,104.81h14.37L320,163.48Zm12.11-73.63a10.76,10.76,0,0,1,11-10.81c4.87,0,8.31,3.44,8.31,7.84a10.72,10.72,0,0,1-10.92,10.8C321.05,97.68,317.72,94.24,317.72,89.85Z"/><path d="M402.87,128.8c0,23.63-18.29,36.22-34.44,36.22-9.14,0-16.39-4.63-19-11.52h-.24l-6.53,35H328.29l10.45-54.87c3.21-16.63,16.15-30.4,36.94-30.4C391.59,103.27,402.87,114,402.87,128.8Zm-49.64,8.67c0,8.55,5.23,14.61,14,14.61,11.63,0,20.78-9.39,20.78-21.26,0-8.55-5.23-14.61-14-14.61C362.38,116.21,353.23,125.59,353.23,137.47Z"/><path class="cls-2" d="M383.41,21.28v6.44A19.79,19.79,0,0,1,363.63,47.5H344.41a4.39,4.39,0,0,1-.62.76l-6.62,6.62a5.31,5.31,0,0,1-7.52,0L323,48.26a4.39,4.39,0,0,1-.62-.76H303.19a19.79,19.79,0,0,1-19.78-19.78V21.28A19.79,19.79,0,0,1,303.19,1.5h60.44A19.79,19.79,0,0,1,383.41,21.28Z"/><polyline points="322.91 36 322.91 14 344.91 14"/><path d="M373.91,25.5A11.5,11.5,0,1,1,362.41,14,11.5,11.5,0,0,1,373.91,25.5Zm-15-9.5a6,6,0,1,0,6,6A6,6,0,0,0,358.91,16Z"/><path d="M315.91,25.5A11.5,11.5,0,1,1,304.41,14,11.5,11.5,0,0,1,315.91,25.5Zm-15-9.5a6,6,0,1,0,6,6A6,6,0,0,0,300.91,16Z"/></g></g></svg>
